PathFileType	4	(X/Y/Z)	E:\Qualisys_Data\Carbon_Farble_Plate\Data\Amateur_Runner\S1\T2\S1T2V12_c3d.trc
DataRate	CameraRate	NumFrames	NumMarkers	Units	OrigDataRate	OrigDataStartFrame	OrigNumFrames
200.000000	200.000000	4	39	mm	200.000000	195	312
Frame#	Time	LSHO			RSHO			LICST			RICST			LASIS			LHEEL			RASIS			LTROC			RTROC			SACR			LTH1			LSK4			LTH2			LTH3			RHM5			LSK2			LTH4			RTH1			LTOE			RTH2			RTH3			RTH4			LLEP			RLEP			LSK1			LSK3			RSK1			LHM5			RSK2			LFT1			RSK3			RSK4			LLME			RLME			RTOE			RHEEL			RFT1			RFT2			LFT2			
		X1	Y1	Z1	X2	Y2	Z2	X3	Y3	Z3	X4	Y4	Z4	X5	Y5	Z5	X6	Y6	Z6	X7	Y7	Z7	X8	Y8	Z8	X9	Y9	Z9	X10	Y10	Z10	X11	Y11	Z11	X12	Y12	Z12	X13	Y13	Z13	X14	Y14	Z14	X15	Y15	Z15	X16	Y16	Z16	X17	Y17	Z17	X18	Y18	Z18	X19	Y19	Z19	X20	Y20	Z20	X21	Y21	Z21	X22	Y22	Z22	X23	Y23	Z23	X24	Y24	Z24	X25	Y25	Z25	X26	Y26	Z26	X27	Y27	Z27	X28	Y28	Z28	X29	Y29	Z29	X30	Y30	Z30	X31	Y31	Z31	X32	Y32	Z32	X33	Y33	Z33	X34	Y34	Z34	X35	Y35	Z35	X36	Y36	Z36	X37	Y37	Z37	X38	Y38	Z38	X39	Y39	Z39	

196	0.975	836.9708251953125	1505.229370117188	-513.4447631835938	855.6057739257812	1471.275756835938	-184.5527801513672	814.1759033203125	1025.169799804688	-493.4842529296875	819.1526489257812	1043.640625	-194.6595916748047	856.2421264648438	985.9561767578124	-466.0023193359375	636.0230712890625	282.0935668945312	-390.0287780761719	855.1978149414062	992.932861328125	-202.0898742675781	763.7128295898438	902.424560546875	-512.88671875	734.4851684570312	915.2276611328124	-175.9055633544922	698.1820678710938	1053.897094726562	-341.1535034179688	942.9523315429688	815.73095703125	-481.5772705078125	752.3665161132812	393.8587646484375	-424.0880126953125	877.02978515625	770.9422607421875	-514.8050537109375	994.9788208007812	725.8020629882812	-472.8608093261719	599.0081787109375	55.51556396484375	-212.9221496582031	825.0203857421875	458.8197326660156	-460.6723022460938	923.7860107421876	682.88525390625	-495.8780822753906	838.2958374023438	767.6541748046875	-198.5206146240234	829.7527465820312	115.7590713500977	-392.9311218261719	764.2113647460938	779.4208984375	-168.7283020019531	817.6461181640625	668.814453125	-209.9057159423828	740.4053955078125	683.6246948242188	-187.6865081787109	1007.447509765625	561.6434936523438	-459.9343566894531	729.0053100585938	511.5497741699219	-232.2949676513672	879.0657958984375	394.7020263671875	-456.7548828125	799.3704833984375	333.7441101074219	-449.717529296875	640.2680053710938	341.0115661621094	-217.7117614746094	755.9571533203125	130.2027893066406	-457.2620544433594	568.1780395507812	379.7301940917969	-221.4878387451172	626.8370361328125	254.8328399658203	-363.2313842773438	594.5588989257812	252.3918151855469	-229.2649078369141	524.4671020507812	291.9864501953125	-245.6986846923828	695.6134643554688	270.705810546875	-440.5083923339844	502.396240234375	156.6209411621094	-228.0193328857422	660.5689086914062	53.82099151611328	-291.0457153320312	420.7933654785156	135.68359375	-266.7856750488281	424.4766235351562	103.2169570922852	-296.4335327148438	419.4426879882812	109.686149597168	-240.0099334716797	621.35498046875	253.8710021972656	-415.8253479003906
197	0.98	851.0034790039062	1509.1279296875	-514.2788696289062	873.8269653320312	1475.93994140625	-185.8222961425781	831.3002319335938	1029.9296875	-494.4376525878906	837.4744873046875	1046.814453125	-196.0462951660156	873.746337890625	990.2677001953124	-465.915771484375	666.335205078125	271.4802856445312	-389.296630859375	873.0487670898438	995.2344970703124	-203.1033782958984	781.8794555664062	907.2135620117188	-514.1561889648438	751.3895263671875	919.447021484375	-176.9130096435547	715.882568359375	1057.642578125	-341.6914367675781	960.86669921875	821.0081176757812	-481.1706848144531	777.3616943359375	388.7903137207031	-423.69482421875	895.6019897460938	775.9320068359375	-514.9657592773438	1013.49169921875	731.7239990234375	-472.3587341308594	599.8994140625	55.9443359375	-213.3562774658203	847.02490234375	456.485595703125	-460.9433288574219	942.8546142578124	688.4877319335938	-496.1614990234375	851.8272705078125	770.072998046875	-199.4394989013672	867.2169799804688	114.39306640625	-393.4808959960938	778.0894165039062	783.4207763671875	-169.6445770263672	828.9937133789062	671.673583984375	-211.6695861816406	752.0987548828125	688.5271606445312	-188.6692047119141	1026.076416015625	566.4967651367188	-459.4591674804688	736.4580688476562	516.8067626953125	-232.4430847167969	903.8364868164062	394.6044921875	-456.9930725097656	826.7991943359375	330.039794921875	-449.4544372558594	646.281494140625	347.1012878417969	-217.0747680664062	792.6417846679688	125.2571716308594	-457.3497009277344	574.1561279296875	386.3539428710938	-221.8357543945312	658.1007080078125	244.0737152099609	-362.888671875	599.6952514648438	258.7020568847656	-228.6413421630859	530.3904418945312	298.5322570800781	-245.1102142333984	725.8109741210938	262.6999816894531	-439.8299865722656	507.0598449707031	162.3312377929688	-227.6478118896484	661.5536499023438	53.97395706176758	-291.1470336914062	424.7255859375	142.0271606445312	-266.8129577636719	427.7625427246094	108.8766403198242	-296.8052368164062	422.9194946289062	115.8989028930664	-240.4361877441406	652.6646118164062	242.7577209472656	-415.4015197753906
198	0.985	865.0452270507812	1512.583862304688	-514.7244873046875	891.5789184570312	1480.864990234375	-186.8870391845703	849.1962890625	1034.918823242188	-494.6087036132812	856.4650268554688	1049.4111328125	-195.1106414794922	890.9464721679688	994.4065551757812	-465.8472900390625	696.8140258789062	261.082275390625	-388.73876953125	890.980224609375	997.8716430664062	-204.1872406005859	799.6986694335938	912.1781616210938	-515.1572875976562	768.1525268554688	923.1163940429688	-177.7559814453125	733.6676635742188	1061.718872070312	-341.9613647460938	979.1604614257812	826.6945190429688	-480.9940185546875	802.8633422851562	382.879638671875	-423.2889404296875	914.3131103515624	781.3349609375	-515.5799560546875	1031.739624023438	737.378662109375	-471.8082580566406	601.2318725585938	56.96280288696289	-213.3630828857422	869.1918334960938	453.4589233398438	-460.8130187988281	961.5894165039062	694.0435180664062	-496.2892150878906	865.5744018554688	772.5225219726562	-199.9372100830078	904.0037841796876	112.5411605834961	-393.602783203125	791.8030395507812	787.7496337890625	-170.6738739013672	840.1967163085938	674.7705078125	-212.3863220214844	763.89892578125	693.12451171875	-189.3775482177734	1044.36669921875	571.5567016601562	-459.3656616210938	744.8155517578125	521.8704833984375	-232.4363708496094	928.6961669921876	394.3399963378906	-456.2732849121094	854.2971801757812	326.4147033691406	-449.0005187988281	652.3458862304688	353.3195495605469	-216.5961608886719	829.1107788085938	120.5996170043945	-457.4461669921875	580.4191284179688	392.7993774414062	-221.9570617675781	689.723876953125	233.2066650390625	-362.47265625	605.6166381835938	264.8155517578125	-227.5922393798828	536.5892333984375	305.0728454589844	-245.4200286865234	756.1053466796875	254.9859466552734	-439.7387084960938	512.1705932617188	168.0237274169922	-227.2483520507812	662.9166870117188	53.78594970703125	-290.7972717285156	431.6092834472656	149.781494140625	-267.8006896972656	431.9071960449219	115.6913604736328	-297.2872009277344	426.918212890625	122.108772277832	-240.7855834960938	684.1880493164062	231.8986511230469	-415.0417785644531
199	0.99	879.2169799804688	1516.179809570312	-515.888427734375	909.3024291992188	1485.604858398438	-188.3807525634766	866.7042846679688	1039.53662109375	-494.9224243164062	874.8326416015625	1052.404296875	-196.3904876708984	908.27880859375	998.8697509765624	-466.7884521484375	727.7749633789062	250.4140472412109	-387.6609497070312	908.9146118164062	1000.298828125	-205.0657043457031	817.3460693359375	916.7562255859376	-516.5120239257812	784.7146606445312	927.265380859375	-178.6663055419922	751.3782958984375	1065.41259765625	-342.6953735351562	997.1026000976562	831.4091796875	-480.7364807128906	827.8878784179688	377.1041564941406	-423.3384399414062	932.70263671875	786.5198364257812	-515.7666015625	1049.8681640625	742.4864501953125	-471.3984069824219	602.4713134765625	57.64463806152344	-213.2993927001953	890.8229370117188	450.6523742675781	-461.11328125	979.9542846679688	699.06640625	-496.2716064453125	879.11328125	775.1513061523438	-200.605712890625	941.1376342773438	111.2304382324219	-393.9263916015625	806.2813110351562	791.8512573242188	-171.1129455566406	852.0961303710938	678.2300415039062	-212.6658935546875	776.1517944335938	698.0325927734375	-190.0478973388672	1062.104370117188	576.2282104492188	-459.1430969238281	753.3617553710938	527.5931396484375	-232.3726348876953	953.342041015625	393.5986328125	-455.8316345214844	882.2979736328125	322.2579956054688	-448.6903686523438	659.1150512695312	359.345947265625	-215.8222961425781	865.7838134765625	116.3012542724609	-457.5945739746094	587.5785522460938	399.2987365722656	-221.7938537597656	722.1470336914062	222.1226959228516	-361.3348693847656	611.843994140625	271.1339416503906	-226.6871948242188	543.4171142578125	311.5798950195312	-245.6402740478516	787.3326416015625	247.3384704589844	-439.1957397460938	518.3783569335938	173.1468200683594	-226.5049743652344	664.4239501953125	53.65139007568359	-290.6958618164062	436.8092651367188	156.4841003417969	-267.5975646972656	436.3574523925781	122.9857177734375	-298.0767517089844	431.7853088378906	129.3059692382812	-241.1079254150391	716.3363647460938	220.7165069580078	-414.3844604492188
